<mxfile host="app.diagrams.net" agent="Mozilla/5.0 (Windows NT 10.0; Win64; x64) AppleWebKit/537.36 (KHTML, like Gecko) Chrome/126.0.0.0 Safari/537.36" version="24.7.4">
  <diagram name="Page-1" id="c4acf3e9-155e-7222-9cf6-157b1a14988f">
    <mxGraphModel dx="1434" dy="746" grid="1" gridSize="10" guides="1" tooltips="1" connect="1" arrows="1" fold="1" page="1" pageScale="1" pageWidth="850" pageHeight="1100" background="none" math="0" shadow="0">
      <root>
        <mxCell id="0" />
        <mxCell id="1" parent="0" />
        <mxCell id="PbC5Yc8THwEYSNEz2fW4-52" value="" style="rounded=0;whiteSpace=wrap;html=1;dashed=1;fillColor=none;" parent="1" vertex="1">
          <mxGeometry x="12.5" y="590" width="817.5" height="462" as="geometry" />
        </mxCell>
        <mxCell id="PbC5Yc8THwEYSNEz2fW4-48" value="" style="rounded=0;whiteSpace=wrap;html=1;dashed=1;fillColor=none;" parent="1" vertex="1">
          <mxGeometry x="10" y="54" width="820" height="486" as="geometry" />
        </mxCell>
        <mxCell id="PbC5Yc8THwEYSNEz2fW4-27" value="" style="rounded=0;whiteSpace=wrap;html=1;dashed=1;fillColor=none;strokeColor=#FF0F1F;" parent="1" vertex="1">
          <mxGeometry x="27.5" y="630" width="420" height="402" as="geometry" />
        </mxCell>
        <mxCell id="PbC5Yc8THwEYSNEz2fW4-25" value="" style="rounded=0;whiteSpace=wrap;html=1;dashed=1;fillColor=none;fontSize=15;strokeColor=#0000FF;" parent="1" vertex="1">
          <mxGeometry x="50" y="274" width="710" height="130" as="geometry" />
        </mxCell>
        <mxCell id="PbC5Yc8THwEYSNEz2fW4-45" value="" style="rounded=0;whiteSpace=wrap;html=1;dashed=1;fillColor=none;strokeColor=#FF0F1F;" parent="1" vertex="1">
          <mxGeometry x="520" y="264" width="280" height="256" as="geometry" />
        </mxCell>
        <mxCell id="PbC5Yc8THwEYSNEz2fW4-10" style="edgeStyle=orthogonalEdgeStyle;rounded=0;orthogonalLoop=1;jettySize=auto;html=1;fontSize=15;" parent="1" source="PbC5Yc8THwEYSNEz2fW4-4" target="PbC5Yc8THwEYSNEz2fW4-5" edge="1">
          <mxGeometry relative="1" as="geometry" />
        </mxCell>
        <mxCell id="PbC5Yc8THwEYSNEz2fW4-4" value="Receive" style="rounded=1;whiteSpace=wrap;html=1;fontSize=15;" parent="1" vertex="1">
          <mxGeometry x="340" y="64" width="120" height="60" as="geometry" />
        </mxCell>
        <mxCell id="PbC5Yc8THwEYSNEz2fW4-8" style="edgeStyle=orthogonalEdgeStyle;rounded=0;orthogonalLoop=1;jettySize=auto;html=1;fontSize=15;" parent="1" source="PbC5Yc8THwEYSNEz2fW4-5" target="PbC5Yc8THwEYSNEz2fW4-6" edge="1">
          <mxGeometry relative="1" as="geometry" />
        </mxCell>
        <mxCell id="PbC5Yc8THwEYSNEz2fW4-14" style="edgeStyle=orthogonalEdgeStyle;rounded=0;orthogonalLoop=1;jettySize=auto;html=1;fontSize=15;" parent="1" source="PbC5Yc8THwEYSNEz2fW4-5" target="PbC5Yc8THwEYSNEz2fW4-13" edge="1">
          <mxGeometry relative="1" as="geometry">
            <Array as="points">
              <mxPoint x="400" y="284" />
              <mxPoint x="140" y="284" />
            </Array>
          </mxGeometry>
        </mxCell>
        <mxCell id="PbC5Yc8THwEYSNEz2fW4-15" style="edgeStyle=orthogonalEdgeStyle;rounded=0;orthogonalLoop=1;jettySize=auto;html=1;entryX=0.5;entryY=0;entryDx=0;entryDy=0;fontSize=15;" parent="1" source="PbC5Yc8THwEYSNEz2fW4-5" target="PbC5Yc8THwEYSNEz2fW4-7" edge="1">
          <mxGeometry relative="1" as="geometry">
            <Array as="points">
              <mxPoint x="400" y="284" />
              <mxPoint x="660" y="284" />
            </Array>
          </mxGeometry>
        </mxCell>
        <mxCell id="PbC5Yc8THwEYSNEz2fW4-5" value="Dispatcher" style="rounded=1;whiteSpace=wrap;html=1;fontSize=15;" parent="1" vertex="1">
          <mxGeometry x="340" y="184" width="120" height="60" as="geometry" />
        </mxCell>
        <mxCell id="PbC5Yc8THwEYSNEz2fW4-6" value="FileTransfer&lt;br style=&quot;font-size: 15px;&quot;&gt;Receive Handler" style="rounded=1;whiteSpace=wrap;html=1;fontSize=15;" parent="1" vertex="1">
          <mxGeometry x="340" y="324" width="120" height="60" as="geometry" />
        </mxCell>
        <mxCell id="VDipEbuTRbo2rRdu-Mhq-1" style="edgeStyle=orthogonalEdgeStyle;rounded=0;orthogonalLoop=1;jettySize=auto;html=1;entryX=0.5;entryY=0;entryDx=0;entryDy=0;" edge="1" parent="1" source="PbC5Yc8THwEYSNEz2fW4-7" target="PbC5Yc8THwEYSNEz2fW4-19">
          <mxGeometry relative="1" as="geometry" />
        </mxCell>
        <mxCell id="PbC5Yc8THwEYSNEz2fW4-7" value="Option&lt;br style=&quot;font-size: 15px;&quot;&gt;Receive Handler" style="rounded=1;whiteSpace=wrap;html=1;fontSize=15;" parent="1" vertex="1">
          <mxGeometry x="600" y="324" width="120" height="60" as="geometry" />
        </mxCell>
        <mxCell id="PbC5Yc8THwEYSNEz2fW4-13" value="Default Protocol&lt;div style=&quot;font-size: 15px;&quot;&gt;( RFB 3.8 )&lt;/div&gt;" style="rounded=1;whiteSpace=wrap;html=1;fontSize=15;" parent="1" vertex="1">
          <mxGeometry x="80" y="324" width="120" height="60" as="geometry" />
        </mxCell>
        <mxCell id="PbC5Yc8THwEYSNEz2fW4-19" value="Callback to Client" style="rounded=1;whiteSpace=wrap;html=1;fontSize=15;" parent="1" vertex="1">
          <mxGeometry x="600" y="430" width="120" height="60" as="geometry" />
        </mxCell>
        <mxCell id="PbC5Yc8THwEYSNEz2fW4-26" value="Dispatcher Listener" style="text;html=1;align=center;verticalAlign=middle;whiteSpace=wrap;rounded=0;fontSize=15;fontStyle=1" parent="1" vertex="1">
          <mxGeometry x="50" y="244" width="170" height="30" as="geometry" />
        </mxCell>
        <mxCell id="PbC5Yc8THwEYSNEz2fW4-28" value="Implement" style="text;html=1;align=center;verticalAlign=middle;whiteSpace=wrap;rounded=0;fontSize=15;fontStyle=1" parent="1" vertex="1">
          <mxGeometry x="710" y="224" width="80" height="30" as="geometry" />
        </mxCell>
        <mxCell id="PbC5Yc8THwEYSNEz2fW4-31" style="edgeStyle=orthogonalEdgeStyle;rounded=0;orthogonalLoop=1;jettySize=auto;html=1;fontSize=15;" parent="1" source="PbC5Yc8THwEYSNEz2fW4-29" target="PbC5Yc8THwEYSNEz2fW4-30" edge="1">
          <mxGeometry relative="1" as="geometry" />
        </mxCell>
        <mxCell id="PbC5Yc8THwEYSNEz2fW4-29" value="API Call" style="rounded=1;whiteSpace=wrap;html=1;fontSize=15;" parent="1" vertex="1">
          <mxGeometry x="87.5" y="650" width="120" height="60" as="geometry" />
        </mxCell>
        <mxCell id="PbC5Yc8THwEYSNEz2fW4-34" style="edgeStyle=orthogonalEdgeStyle;rounded=0;orthogonalLoop=1;jettySize=auto;html=1;fontSize=15;" parent="1" source="PbC5Yc8THwEYSNEz2fW4-30" target="PbC5Yc8THwEYSNEz2fW4-33" edge="1">
          <mxGeometry relative="1" as="geometry" />
        </mxCell>
        <mxCell id="PbC5Yc8THwEYSNEz2fW4-30" value="Option&lt;br style=&quot;font-size: 15px;&quot;&gt;&lt;span style=&quot;background-color: initial; font-size: 15px;&quot;&gt;Send Handler&lt;/span&gt;" style="rounded=1;whiteSpace=wrap;html=1;fontSize=15;" parent="1" vertex="1">
          <mxGeometry x="87.5" y="740" width="120" height="60" as="geometry" />
        </mxCell>
        <mxCell id="PbC5Yc8THwEYSNEz2fW4-38" style="edgeStyle=orthogonalEdgeStyle;rounded=0;orthogonalLoop=1;jettySize=auto;html=1;fontSize=15;" parent="1" source="PbC5Yc8THwEYSNEz2fW4-33" target="PbC5Yc8THwEYSNEz2fW4-37" edge="1">
          <mxGeometry relative="1" as="geometry" />
        </mxCell>
        <mxCell id="PbC5Yc8THwEYSNEz2fW4-50" style="edgeStyle=orthogonalEdgeStyle;rounded=0;orthogonalLoop=1;jettySize=auto;html=1;fontSize=15;" parent="1" source="PbC5Yc8THwEYSNEz2fW4-33" target="PbC5Yc8THwEYSNEz2fW4-43" edge="1">
          <mxGeometry relative="1" as="geometry" />
        </mxCell>
        <mxCell id="PbC5Yc8THwEYSNEz2fW4-33" value="Checking&lt;br style=&quot;font-size: 15px;&quot;&gt;Capabilitys" style="rhombus;whiteSpace=wrap;html=1;fontSize=15;" parent="1" vertex="1">
          <mxGeometry x="87.5" y="840" width="120" height="80" as="geometry" />
        </mxCell>
        <mxCell id="PbC5Yc8THwEYSNEz2fW4-37" value="Send" style="rounded=1;whiteSpace=wrap;html=1;fontSize=15;" parent="1" vertex="1">
          <mxGeometry x="87.5" y="960" width="120" height="60" as="geometry" />
        </mxCell>
        <mxCell id="PbC5Yc8THwEYSNEz2fW4-43" value="Error" style="rounded=1;whiteSpace=wrap;html=1;fontSize=15;" parent="1" vertex="1">
          <mxGeometry x="277.5" y="850" width="120" height="60" as="geometry" />
        </mxCell>
        <mxCell id="PbC5Yc8THwEYSNEz2fW4-46" value="Implement" style="text;html=1;align=center;verticalAlign=middle;whiteSpace=wrap;rounded=0;fontStyle=1;fontSize=15;" parent="1" vertex="1">
          <mxGeometry x="27.5" y="592" width="80" height="30" as="geometry" />
        </mxCell>
        <mxCell id="PbC5Yc8THwEYSNEz2fW4-53" value="Send" style="text;html=1;align=center;verticalAlign=middle;whiteSpace=wrap;rounded=0;fontSize=20;fontStyle=1" parent="1" vertex="1">
          <mxGeometry x="12.5" y="560" width="60" height="30" as="geometry" />
        </mxCell>
        <mxCell id="PbC5Yc8THwEYSNEz2fW4-54" value="Recv" style="text;html=1;align=center;verticalAlign=middle;whiteSpace=wrap;rounded=0;fontSize=20;fontStyle=1" parent="1" vertex="1">
          <mxGeometry x="10" y="24" width="60" height="30" as="geometry" />
        </mxCell>
      </root>
    </mxGraphModel>
  </diagram>
</mxfile>
